<?xml version="1.0" ?>
<!DOCTYPE svg  PUBLIC '-//W3C//DTD SVG 1.1//EN'  'http://www.w3.org/Graphics/SVG/1.1/DTD/svg11.dtd'>
<!-- Uploaded to: SVG Repo, www.svgrepo.com, Generator: SVG Repo Mixer Tools -->
<svg fill="#000000" width="800px" height="800px" viewBox="0 0 32 32" style="fill-rule:evenodd;clip-rule:evenodd;stroke-linejoin:round;stroke-miterlimit:2;" version="1.1" xml:space="preserve" xmlns="http://www.w3.org/2000/svg" xmlns:serif="http://www.serif.com/" xmlns:xlink="http://www.w3.org/1999/xlink">
<g id="Icon">
<path d="M11.994,18.007l-0.001,-0c-1.105,-0 -2.002,0.897 -2.002,2.002c-0,1.104 0.897,2.001 2.002,2.001c1.104,0 2.001,-0.897 2.001,-2.001l0,-7.123c0,0 6.001,-0.75 6.001,-0.75l0.003,3.867c-1.105,0 -2.002,0.897 -2.002,2.002c0,1.105 0.897,2.002 2.002,2.002c1.105,-0 2.001,-0.897 2.001,-2.002l-0.005,-7.002c0,-0.287 -0.123,-0.56 -0.338,-0.749c-0.215,-0.19 -0.501,-0.278 -0.786,-0.243l-8,1c-0.5,0.063 -0.876,0.488 -0.876,0.992l0,6.004Z"/>
<path d="M15.237,26l11.759,-0.009c0.795,-0 1.558,-0.316 2.121,-0.879c0.562,-0.563 0.878,-1.326 0.878,-2.121c0,-3.463 0,-10.537 0,-14c0,-0.796 -0.316,-1.559 -0.878,-2.122c-0.563,-0.562 -1.326,-0.878 -2.122,-0.878l-22,-0c-0.795,-0 -1.559,0.316 -2.121,0.878c-0.563,0.563 -0.879,1.326 -0.879,2.122c0,3.463 0,10.537 0,14c0,0.795 0.316,1.558 0.879,2.121c0.562,0.563 1.326,0.879 2.121,0.879l1.024,-0c0,-0 0,3.011 0,3.011c0,0.346 0.18,0.668 0.475,0.85c0.295,0.183 0.663,0.199 0.973,0.043l7.77,-3.895Zm-0.238,-2c-0.155,0 -0.308,0.036 -0.447,0.106l-6.533,3.275c0,0 0,-2.39 0,-2.39c0,-0.553 -0.447,-1 -1,-1l-2.024,-0c-0.265,-0 -0.519,-0.106 -0.707,-0.293c-0.187,-0.188 -0.293,-0.442 -0.293,-0.707l0,-14c0,-0.266 0.106,-0.52 0.293,-0.707c0.188,-0.188 0.442,-0.293 0.707,-0.293c0,-0 22,-0 22,-0c0.265,-0 0.52,0.105 0.707,0.293c0.188,0.187 0.293,0.441 0.293,0.707l0,14c0,0.265 -0.105,0.519 -0.293,0.707c-0.187,0.187 -0.442,0.293 -0.707,0.293l-11.996,0.009Z"/>
</g>
</svg>